#N canvas 594 51 770 610 12;
#X obj 101 101 cnv 15 73 298 empty empty Rec/Out 8 10 0 14 -249856
-66577 0;
#X obj 728 417 cnv 15 100 60 empty empty empty 20 12 0 14 -233017 -66577
0;
#X obj 343 533 *~;
#X obj 383 533 *~;
#X obj 350 569 dac~;
#X obj 117 286 vsl 40 101 0 1 0 0 \$0-output-send \$0-output-recv O:0.8
0 -9 0 10 -262144 -1 -66577 8000 1;
#X obj 354 447 pack f 50;
#X obj 354 470 line~;
#X obj 117 137 vsl 40 101 0 1 0 0 \$0-input-send \$0-input-recv I:0.8
0 -9 0 10 -262144 -1 -66577 8000 1;
#X obj 274 317 r \$0-output-send;
#X obj 274 363 s \$0-output-recv;
#X msg 274 340 label O:\$1;
#X obj 274 37 loadbang;
#X msg 274 101 0.8;
#X text 273 293 Update Output label;
#X obj 248 534 *~;
#X obj 288 534 *~;
#X obj 259 448 pack f 50;
#X obj 259 471 line~;
#X text 272 186 Update Input label;
#X obj 273 209 r \$0-input-send;
#X obj 273 255 s \$0-input-recv;
#X msg 273 232 label I:\$1;
#X obj 174 678 writesf~ 2;
#X obj 35 538 savepanel;
#X msg 35 584 open \$1;
#X obj 35 515 sel 1 0;
#X obj 35 561 t s b;
#X obj 117 562 del 10;
#X msg 117 585 start;
#X msg 178 586 stop;
#X obj 117 250 tgl 15 0 empty empty R 5 8 0 10 -242260 -262144 -262144
0 1;
#X obj 11 134 s \$0-record;
#X obj 35 491 r \$0-record;
#X obj 141 250 tgl 15 0 empty empty M 5 8 0 10 -47404 -1 -262144 0
1;
#X obj 25 261 s \$0-mute;
#X obj 409 624 r \$0-mute;
#X obj 409 648 sel 0 1;
#X msg 409 672 0;
#X obj 368 421 s \$0-out-level;
#X obj 298 624 r \$0-out-level;
#X obj 328 648 sel 0;
#X obj 342 672 f;
#X msg 313 87 \; pd dsp 1 \;;
#X obj 274 124 s \$0-set-initial-level;
#X obj 46 37 r \$0-set-initial-level;
#X obj 379 710 s \$0-set-mute-level;
#X obj 46 66 r \$0-set-mute-level;
#X msg 348 37 \; pd dsp 0 \;;
#X obj 114 448 inlet~;
#X obj 164 448 inlet~;
#X connect 2 0 4 0;
#X connect 3 0 4 1;
#X connect 5 0 6 0;
#X connect 5 0 39 0;
#X connect 6 0 7 0;
#X connect 7 0 2 1;
#X connect 7 0 3 1;
#X connect 8 0 17 0;
#X connect 9 0 11 0;
#X connect 11 0 10 0;
#X connect 12 0 13 0;
#X connect 12 0 43 0;
#X connect 13 0 44 0;
#X connect 15 0 2 0;
#X connect 15 0 23 0;
#X connect 16 0 3 0;
#X connect 16 0 23 1;
#X connect 17 0 18 0;
#X connect 18 0 15 1;
#X connect 18 0 16 1;
#X connect 20 0 22 0;
#X connect 22 0 21 0;
#X connect 24 0 27 0;
#X connect 25 0 23 0;
#X connect 26 0 24 0;
#X connect 26 1 30 0;
#X connect 27 0 25 0;
#X connect 27 1 28 0;
#X connect 28 0 29 0;
#X connect 29 0 23 0;
#X connect 30 0 23 0;
#X connect 31 0 32 0;
#X connect 33 0 26 0;
#X connect 34 0 35 0;
#X connect 36 0 37 0;
#X connect 37 0 42 0;
#X connect 37 1 38 0;
#X connect 38 0 46 0;
#X connect 40 0 41 0;
#X connect 41 1 42 1;
#X connect 42 0 46 0;
#X connect 45 0 5 0;
#X connect 45 0 8 0;
#X connect 47 0 5 0;
#X connect 49 0 15 0;
#X connect 50 0 16 0;
#X coords 0 -1 1 1 75 300 2 100 100;
