#N canvas 594 51 788 610 12;
#X obj 100 100 cnv 15 225 300 empty empty Rec/Out 84 12 0 12 -237241
-66577 0;
#X obj 343 533 *~;
#X obj 383 533 *~;
#X obj 350 569 dac~;
#X obj 117 286 vsl 40 101 0 1 0 0 \$0-output-send \$0-output-recv O:0.8
0 -9 0 10 -262144 -1 -66577 8000 1;
#X obj 354 447 pack f 50;
#X obj 354 470 line~;
#X obj 117 137 vsl 40 101 0 1 0 0 \$0-input-send \$0-input-recv I:0.8
0 -9 0 10 -262144 -1 -66577 8000 1;
#X obj 508 273 r \$0-output-send;
#X obj 508 319 s \$0-output-recv;
#X msg 508 296 label O:\$1;
#X obj 357 128 loadbang;
#X msg 357 192 0.8;
#X text 507 249 Update Output label;
#X obj 248 534 *~;
#X obj 288 534 *~;
#X obj 259 448 pack f 50;
#X obj 259 471 line~;
#X text 357 250 Update Input label;
#X obj 358 273 r \$0-input-send;
#X obj 358 319 s \$0-input-recv;
#X msg 358 296 label I:\$1;
#X obj 174 678 writesf~ 2;
#X obj 35 538 savepanel;
#X msg 35 584 open \$1;
#X obj 35 515 sel 1 0;
#X obj 35 561 t s b;
#X obj 117 562 del 10;
#X msg 117 585 start;
#X msg 178 586 stop;
#X obj 117 250 tgl 15 0 empty empty R 5 8 0 10 -242260 -262144 -262144
0 1;
#X obj 11 134 s \$0-record;
#X obj 35 491 r \$0-record;
#X obj 141 250 tgl 15 0 empty empty M 5 8 0 10 -47404 -1 -262144 0
1;
#X obj 25 261 s \$0-mute;
#X obj 559 484 r \$0-mute;
#X obj 559 508 sel 0 1;
#X msg 559 532 0;
#X obj 368 421 s \$0-out-level;
#X obj 448 484 r \$0-out-level;
#X obj 478 508 sel 0;
#X obj 492 532 f;
#X msg 428 127 \; pd dsp 1 \;;
#X obj 357 215 s \$0-set-initial-level;
#X obj 46 37 r \$0-set-initial-level;
#X obj 529 570 s \$0-set-mute-level;
#X obj 46 66 r \$0-set-mute-level;
#X msg 512 127 \; pd dsp 0 \;;
#X obj 114 448 inlet~;
#X obj 164 448 inlet~;
#X obj 400 637 tgl 15 0 empty empty empty 17 7 0 10 -262144 -1 -1 1
1;
#X obj 398 192 s \$0-start-display;
#X obj 400 611 r \$0-start-display;
#X obj 400 656 metro 100;
#X obj 350 689 tabwrite~ Left;
#X obj 459 689 tabwrite~ Right;
#X obj 172 135 cnv 15 136 106 empty empty empty 20 12 0 14 -262064
-66577 0;
#N canvas 0 22 450 278 (subpatch) 0;
#X array Left 100 float 4;
#X coords 0 1 99 -1 136 106 2 0 0;
#X restore 172 135 graph;
#N canvas 0 22 450 278 (subpatch) 0;
#X array Right 100 float 4;
#X coords 0 1 99 -1 136 106 2 0 0;
#X restore 172 135 graph;
#X obj 155 118 cnv 15 80 16 empty empty empty 20 12 0 14 -237242 -66577
0;
#X obj 180 268 vu 20 120 empty empty -1 -8 0 10 -66577 -1 1 0;
#X obj 255 268 vu 20 120 empty empty -1 -8 0 10 -66577 -1 1 0;
#N canvas 0 25 450 300 vu 0;
#X obj 59 129 env~ 1024;
#X obj 161 111 abs~;
#X obj 161 213 snapshot~;
#X obj 161 256 rmstodb;
#X obj 161 21 inlet~;
#X obj 161 288 - 100;
#X obj 59 287 - 100;
#X obj 59 361 outlet;
#X obj 161 361 outlet;
#X text 344 307 Check the help file of env~ and slop~ for more details.
, f 31;
#X obj 239 89 expr 1000 / $f1;
#X floatatom 239 117 5 0 0 0 - - -;
#X obj 161 146 slop~ 0 0 0 0 1e+09;
#X text 359 89 convert to hz;
#X text 282 118 hz;
#X text 284 57 peak decay time in ms;
#X obj 59 171 t f b;
#X text 345 132 The env~ object is dedicated to RMS analysis. Its output
is in dB (0-100 range \, pd style) but needs to be converted to dBFS
(and we do that by simply subtracting 100)., f 31;
#X text 345 225 The slop~ object is used here for peak detection. We
need to convert the output to dB with rmstodb and also subract by 100
to convert it to dBFS., f 31;
#X msg 239 57 1500;
#X obj 239 28 loadbang;
#X connect 0 0 16 0;
#X connect 1 0 12 0;
#X connect 2 0 3 0;
#X connect 3 0 5 0;
#X connect 4 0 0 0;
#X connect 4 0 1 0;
#X connect 5 0 8 0;
#X connect 6 0 7 0;
#X connect 10 0 11 0;
#X connect 11 0 12 3;
#X connect 12 0 2 0;
#X connect 16 0 6 0;
#X connect 16 1 2 0;
#X connect 19 0 10 0;
#X connect 20 0 19 0;
#X restore 402 568 pd vu;
#N canvas 0 25 450 300 vu 0;
#X obj 59 129 env~ 1024;
#X obj 161 111 abs~;
#X obj 161 213 snapshot~;
#X obj 161 256 rmstodb;
#X obj 161 21 inlet~;
#X obj 161 288 - 100;
#X obj 59 287 - 100;
#X obj 59 361 outlet;
#X obj 161 361 outlet;
#X text 344 307 Check the help file of env~ and slop~ for more details.
, f 31;
#X obj 239 89 expr 1000 / $f1;
#X floatatom 239 117 5 0 0 0 - - -;
#X obj 161 146 slop~ 0 0 0 0 1e+09;
#X text 359 89 convert to hz;
#X text 282 118 hz;
#X text 284 57 peak decay time in ms;
#X obj 59 171 t f b;
#X text 345 132 The env~ object is dedicated to RMS analysis. Its output
is in dB (0-100 range \, pd style) but needs to be converted to dBFS
(and we do that by simply subtracting 100)., f 31;
#X text 345 225 The slop~ object is used here for peak detection. We
need to convert the output to dB with rmstodb and also subract by 100
to convert it to dBFS., f 31;
#X msg 239 57 1500;
#X obj 239 28 loadbang;
#X connect 0 0 16 0;
#X connect 1 0 12 0;
#X connect 2 0 3 0;
#X connect 3 0 5 0;
#X connect 4 0 0 0;
#X connect 4 0 1 0;
#X connect 5 0 8 0;
#X connect 6 0 7 0;
#X connect 10 0 11 0;
#X connect 11 0 12 3;
#X connect 12 0 2 0;
#X connect 16 0 6 0;
#X connect 16 1 2 0;
#X connect 19 0 10 0;
#X connect 20 0 19 0;
#X restore 449 568 pd vu;
#X text 354 3 record-output-channel~ is an object used as the final
gain- stage/ output module of a signal flow before it reaches the dac~.
This module also has the ability to record the incoming audio to a
.wav file on disc. Users can monitor the input signal using a stacked-array
representing the left and right channels of the incoming signal. The
left and right channels of the output signal is monitored using VU
meters.;
#X connect 1 0 3 0;
#X connect 1 0 62 0;
#X connect 2 0 3 1;
#X connect 2 0 63 0;
#X connect 4 0 5 0;
#X connect 4 0 38 0;
#X connect 5 0 6 0;
#X connect 6 0 1 1;
#X connect 6 0 2 1;
#X connect 7 0 16 0;
#X connect 8 0 10 0;
#X connect 10 0 9 0;
#X connect 11 0 12 0;
#X connect 11 0 42 0;
#X connect 11 0 51 0;
#X connect 12 0 43 0;
#X connect 14 0 1 0;
#X connect 14 0 22 0;
#X connect 14 0 54 0;
#X connect 15 0 2 0;
#X connect 15 0 22 1;
#X connect 15 0 55 0;
#X connect 16 0 17 0;
#X connect 17 0 14 1;
#X connect 17 0 15 1;
#X connect 19 0 21 0;
#X connect 21 0 20 0;
#X connect 23 0 26 0;
#X connect 24 0 22 0;
#X connect 25 0 23 0;
#X connect 25 1 29 0;
#X connect 26 0 24 0;
#X connect 26 1 27 0;
#X connect 27 0 28 0;
#X connect 28 0 22 0;
#X connect 29 0 22 0;
#X connect 30 0 31 0;
#X connect 32 0 25 0;
#X connect 33 0 34 0;
#X connect 35 0 36 0;
#X connect 36 0 41 0;
#X connect 36 1 37 0;
#X connect 37 0 45 0;
#X connect 39 0 40 0;
#X connect 40 1 41 1;
#X connect 41 0 45 0;
#X connect 44 0 4 0;
#X connect 44 0 7 0;
#X connect 46 0 4 0;
#X connect 48 0 14 0;
#X connect 49 0 15 0;
#X connect 50 0 53 0;
#X connect 52 0 50 0;
#X connect 53 0 54 0;
#X connect 53 0 55 0;
#X connect 62 0 60 0;
#X connect 62 1 60 1;
#X connect 63 0 61 0;
#X connect 63 1 61 1;
#X coords 0 -1 1 1 225 300 2 100 100;
